<mxfile host="app.diagrams.net" modified="2024-05-23T01:14:47.372Z" agent="Mozilla/5.0 (X11; Ubuntu; Linux x86_64; rv:109.0) Gecko/20100101 Firefox/118.0" version="24.4.6" etag="OUQi276-lX5mPkx9MATi" type="github">
  <diagram name="Page-1" id="HMe04MvFaul-6fBr2Olu">
    <mxGraphModel>
      <root>
        <mxCell id="0" />
        <mxCell id="1" parent="0" />
      </root>
    </mxGraphModel>
  </diagram>
</mxfile>
